<?xml version="1.0" encoding="utf-8"?>
<!-- Generator: Adobe Illustrator 16.0.0, SVG Export Plug-In . SVG Version: 6.00 Build 0)  -->
<!DOCTYPE svg PUBLIC "-//W3C//DTD SVG 1.1//EN" "http://www.w3.org/Graphics/SVG/1.1/DTD/svg11.dtd">
<svg version="1.1" id="圖層_1" xmlns="http://www.w3.org/2000/svg" xmlns:xlink="http://www.w3.org/1999/xlink" x="0px" y="0px"
	 width="960px" height="327.394px" viewBox="0 0 960 327.394" enable-background="new 0 0 960 327.394" xml:space="preserve">
<path fill="#8e4111" d="M403.076,244.643h-49.662c0,0-28.179,0-38.67,0c-19.735,0-34.274-0.625-47.514-11.616
	c-13.246-10.991-19.86-25.355-19.86-43.092c0-18.486,7.12-33.475,21.359-44.966c12.49-9.493,29.917-13.271,50.545-13.858
	c13.989-0.4,20.25-0.137,35.863,1.174c0.056-8.637-7.079-10.898-23.473-10.898c-17.396,0-43.126,0.325-43.126,0.325l-10.167-41.119
	c0,0,30.833,0,58.205,0c34.789,0,43.583,3.491,53.975,14.152c11.729,12.034,12.699,26.642,12.699,38.258 M353.92,173.878
	c-47.301-5.333-53.34,1.068-53.34,16.057c0,10.492,6.495,15.738,19.485,15.738c16.041,0.256,33.449-1.024,33.449-1.024
	S354.098,190.678,353.92,173.878z"/>
<path fill="#8e4111" d="M732.023,85.394H685v4.343c-13-4.478-23.158-7.02-34.838-7.02c-44.465,0-81.534,36.035-81.534,80.494
	c0,44.466,35.521,80.501,79.985,80.501c11.092,0,24.228-2.892,33.846-6.951c-0.375,16.145-21.017,26.779-38.166,26.779
	l-59.884-0.717l-22.118,46.57c0,0,50.012,0,85.359,0c56.707,0,85.06-36.114,85.06-104.562L732.023,85.394z M648.088,199.059
	c-19.798,0-35.848-16.044-35.848-35.848c0-19.797,16.05-35.841,35.848-35.841c19.797,0,35.848,16.044,35.848,35.841
	C683.936,183.015,667.885,199.059,648.088,199.059z"/>
<path fill="#8e4111" d="M823.181,79.519c-46.489,0-84.16,37.677-84.16,84.161c0,46.489,37.671,84.167,84.16,84.167
	s84.161-37.678,84.161-84.167C907.342,117.196,869.67,79.519,823.181,79.519z M823.181,200.021
	c-20.072,0-36.335-16.269-36.335-36.341c0-20.066,16.263-36.335,36.335-36.335s36.335,16.269,36.335,36.335
	C859.516,183.752,843.253,200.021,823.181,200.021z"/>
<path fill="#8e4111" d="M562.291,243.668H510.58v-85.359c0-19.485-14.451-29.027-27.279-28.778
	c-19.235,0.375-15.054,0.112-15.054,0.112v114.025h-52.082l-1.441-162.107c0,0,68.88-0.442,84.369-0.442
	c23.982,0,36.844,7.744,48.584,23.232c9.744,12.74,14.615,30.102,14.615,52.085V243.668z"/>
<polygon fill="#8e4111" points="193.859,79.394 152.117,124.397 111.533,79.394 65,79.394 65,245.394 110,245.394 110,146.583 
	151.346,186.394 156.311,186.394 191,146.583 191,245.394 237,245.394 237,79.394 "/>
</svg>
